<?xml version="1.0" encoding="UTF-8"?>
<svg id="Layer_1" xmlns="http://www.w3.org/2000/svg" version="1.1" viewBox="0 0 180 25">
  <!-- Generator: Adobe Illustrator 29.4.0, SVG Export Plug-In . SVG Version: 2.1.0 Build 152)  -->
  <defs>
    <style>
      .st0 {
        fill: #f76a69;
      }

      .st1 {
        fill: #fdda44;
      }

      .st2 {
        fill: #a780cf;
      }
    </style>
  </defs>
  <g>
    <g>
      <path class="st0" d="M23.27,4.42h3.37c1.82,0,3.14.17,3.94.5.81.34,1.44.88,1.91,1.63.47.75.7,1.65.7,2.71,0,1.17-.3,2.13-.91,2.9s-1.44,1.31-2.48,1.61c-.61.17-1.73.26-3.35.26v7.07h-3.18V4.42ZM26.45,10.94h1.01c.79,0,1.35-.06,1.66-.17s.55-.3.73-.56.27-.58.27-.95c0-.64-.25-1.12-.75-1.41-.36-.22-1.04-.33-2.02-.33h-.9v3.43h0Z"/>
      <path class="st0" d="M35.23,8.77h2.65v1.55c.29-.61.67-1.08,1.15-1.39.48-.32,1-.48,1.57-.48.4,0,.82.11,1.26.32l-.96,2.67c-.36-.18-.66-.27-.9-.27-.48,0-.88.29-1.21.88-.33.59-.49,1.75-.49,3.47v5.59h-3.06v-12.34h-.01Z"/>
      <path class="st0" d="M49.18,8.45c1.16,0,2.26.29,3.28.87s1.82,1.37,2.4,2.37c.58,1,.86,2.08.86,3.23s-.29,2.25-.87,3.27c-.58,1.01-1.37,1.81-2.37,2.38-1,.57-2.1.86-3.3.86-1.77,0-3.28-.63-4.53-1.89s-1.88-2.79-1.88-4.59c0-1.93.71-3.54,2.12-4.82,1.24-1.12,2.67-1.68,4.28-1.68h0ZM49.23,11.36c-.96,0-1.76.33-2.4,1s-.96,1.53-.96,2.57.32,1.94.95,2.61c.63.67,1.43,1,2.4,1s1.78-.34,2.42-1.01.97-1.54.97-2.6-.32-1.92-.95-2.58c-.63-.66-1.44-.99-2.43-.99Z"/>
      <path class="st0" d="M58.24,8.77h3.1v1.42c.53-.58,1.12-1.02,1.76-1.3.65-.29,1.35-.43,2.12-.43s1.47.19,2.09.57,1.12.93,1.5,1.66c.49-.73,1.1-1.28,1.81-1.66.72-.38,1.5-.57,2.34-.57s1.65.2,2.32.61,1.14.94,1.44,1.6c.29.66.44,1.73.44,3.21v7.24h-3.12v-6.26c0-1.4-.17-2.35-.52-2.84-.35-.5-.87-.74-1.57-.74-.53,0-1,.15-1.42.45s-.73.72-.94,1.25-.31,1.39-.31,2.57v5.57h-3.12v-5.98c0-1.1-.08-1.9-.24-2.4s-.41-.86-.73-1.11-.72-.36-1.18-.36c-.52,0-.98.15-1.4.46s-.74.74-.94,1.29c-.21.55-.31,1.42-.31,2.61v5.49h-3.1v-12.34h-.02,0Z"/>
      <path class="st0" d="M85.89,8.45c1.16,0,2.26.29,3.28.87s1.82,1.37,2.4,2.37.86,2.08.86,3.23-.29,2.25-.87,3.27c-.58,1.01-1.37,1.81-2.37,2.38-1,.57-2.1.86-3.3.86-1.77,0-3.28-.63-4.53-1.89s-1.88-2.79-1.88-4.59c0-1.93.71-3.54,2.12-4.82,1.24-1.12,2.67-1.68,4.28-1.68,0,0,0,0,.01,0ZM85.94,11.36c-.96,0-1.76.33-2.4,1-.64.67-.96,1.53-.96,2.57s.32,1.94.95,2.61,1.43,1,2.4,1,1.78-.34,2.42-1.01.97-1.54.97-2.6-.32-1.92-.95-2.58-1.44-.99-2.43-.99Z"/>
    </g>
    <g>
      <path class="st2" d="M111.28,6.72l-1.01,1.4c-1.77-1.66-3.79-2.5-6.05-2.5-1.47,0-2.85.36-4.13,1.08-1.28.72-2.28,1.69-3.01,2.91-.72,1.22-1.08,2.53-1.08,3.93,0,1.25.28,2.36.83,3.33.55.97,1.36,1.73,2.41,2.28,1.05.55,2.25.82,3.61.82,2.06,0,3.99-.65,5.77-1.96l.93,1.33c-1.32.87-2.46,1.45-3.41,1.75-.95.3-2.05.45-3.3.45-2.31,0-4.19-.58-5.64-1.74-1.93-1.55-2.89-3.62-2.89-6.21s.96-4.93,2.89-6.79c1.93-1.86,4.33-2.79,7.19-2.79,1.31,0,2.5.21,3.57.62s2.18,1.11,3.31,2.1h.01Z"/>
      <path class="st2" d="M120,8.45c1.05,0,2.02.25,2.89.75s1.56,1.2,2.05,2.1c.49.9.74,1.91.74,3.05,0,1.29-.31,2.49-.94,3.6-.63,1.11-1.47,1.96-2.53,2.57s-2.26.91-3.6.91c-1.66,0-3.02-.54-4.09-1.63-1.07-1.08-1.61-2.47-1.61-4.15,0-1.32.31-2.53.94-3.64s1.49-1.98,2.58-2.61c1.09-.63,2.28-.95,3.56-.95,0,0,.01,0,.01,0ZM119.96,9.96c-.98,0-1.91.25-2.78.74-.87.49-1.53,1.17-2,2.02-.46.86-.7,1.81-.7,2.84,0,1.3.4,2.36,1.2,3.17.8.81,1.84,1.22,3.11,1.22.99,0,1.89-.24,2.7-.71s1.45-1.16,1.93-2.05c.48-.89.71-1.85.71-2.87,0-.85-.18-1.61-.53-2.27-.36-.66-.86-1.18-1.51-1.54-.65-.37-1.36-.55-2.13-.55Z"/>
      <path class="st2" d="M140.2,21.11h-1.6l.25-1.91c-1.46,1.49-3.11,2.23-4.94,2.23-1.67,0-3.03-.54-4.11-1.62-1.07-1.08-1.61-2.47-1.61-4.17,0-1.97.7-3.66,2.1-5.07s3.04-2.12,4.94-2.12c1.03,0,1.92.22,2.7.65.77.43,1.44,1.1,1.99,2.02l.94-7.11h1.65l-2.31,17.11h0ZM134.13,19.97c1.02,0,1.95-.24,2.79-.72.84-.48,1.5-1.17,1.99-2.07s.74-1.88.74-2.94c0-1.28-.4-2.32-1.21-3.12s-1.86-1.2-3.15-1.2c-1.52,0-2.81.55-3.89,1.64s-1.62,2.44-1.62,4.04c0,1.31.4,2.36,1.21,3.17.81.8,1.86,1.2,3.15,1.2h0Z"/>
      <path class="st2" d="M156.65,15.25h-11c-.02,1.47.36,2.62,1.15,3.46s1.83,1.26,3.14,1.26c.87,0,1.68-.18,2.42-.53s1.35-.85,1.84-1.5l1.18.96c-.6.76-1.38,1.37-2.34,1.83-.96.46-2.01.69-3.12.69-1.94,0-3.39-.6-4.36-1.8-.97-1.2-1.46-2.55-1.46-4.04,0-1.22.33-2.4.98-3.54.65-1.13,1.53-2.02,2.63-2.65,1.1-.63,2.28-.95,3.56-.95,1.58,0,2.89.54,3.92,1.6,1.04,1.07,1.55,2.43,1.55,4.09,0,.3-.03.67-.08,1.11h0ZM155.19,13.87c-.04-1.16-.44-2.1-1.19-2.82-.75-.72-1.69-1.08-2.83-1.08-1.23,0-2.32.35-3.26,1.04s-1.61,1.65-2,2.86h9.28Z"/>
    </g>
  </g>
  <polygon class="st1" points="171.47 4.39 173.48 10.59 180 10.59 174.73 14.41 176.74 20.61 171.47 16.78 166.2 20.61 168.21 14.41 162.94 10.59 169.46 10.59 171.47 4.39"/>
  <polygon class="st1" points="8.54 4.39 10.55 10.59 17.07 10.59 11.8 14.41 13.81 20.61 8.54 16.78 3.27 20.61 5.28 14.41 0 10.59 6.53 10.59 8.54 4.39"/>
  <polygon class="st1" points="45.03 -34.9 43.88 -34.79 43.62 -33.65 43.16 -34.72 42.01 -34.61 42.88 -35.38 42.41 -36.44 43.41 -35.85 44.28 -36.62 44.03 -35.49 45.03 -34.9"/>
</svg>